PathFileType	4	(X/Y/Z)	s09c0202.trc
DataRate	CameraRate	NumFrames	NumMarkers	Units	OrigDataRate	OrigDataStartFrame	OrigNumFrames
200	200	4	50	mm	200	1000	2000
Frame#	Time	racr			lacr			c7			jug			rlel			rdr			llel			ldr			s2			lic			ric			lasi			rasi			rpsi			lpsi			rgt			lgt			rth1			rth2			rth3			rth4			rlfc			rmfc			rsh1			rsh2			rsh3			rsh4			rlmal			rmmal			rcal			rtoe			rmt5			lth1			lth2			lth4			lth3			llfc			lmfc			llmal			lmmal			lcal			lmt5			lsh1			lsh2			lsh3			lsh4			ltoe			SBIKE			LBIKE			RBIKE			
		X1	Y1	Z1	X2	Y2	Z2	X3	Y3	Z3	X4	Y4	Z4	X5	Y5	Z5	X6	Y6	Z6	X7	Y7	Z7	X8	Y8	Z8	X9	Y9	Z9	X10	Y10	Z10	X11	Y11	Z11	X12	Y12	Z12	X13	Y13	Z13	X14	Y14	Z14	X15	Y15	Z15	X16	Y16	Z16	X17	Y17	Z17	X18	Y18	Z18	X19	Y19	Z19	X20	Y20	Z20	X21	Y21	Z21	X22	Y22	Z22	X23	Y23	Z23	X24	Y24	Z24	X25	Y25	Z25	X26	Y26	Z26	X27	Y27	Z27	X28	Y28	Z28	X29	Y29	Z29	X30	Y30	Z30	X31	Y31	Z31	X32	Y32	Z32	X33	Y33	Z33	X34	Y34	Z34	X35	Y35	Z35	X36	Y36	Z36	X37	Y37	Z37	X38	Y38	Z38	X39	Y39	Z39	X40	Y40	Z40	X41	Y41	Z41	X42	Y42	Z42	X43	Y43	Z43	X44	Y44	Z44	X45	Y45	Z45	X46	Y46	Z46	X47	Y47	Z47	X48	Y48	Z48	X49	Y49	Z49	X50	Y50	Z50	
1000	5.0000	437.948461	1227.914658	-15.618931	540.739211	1236.743399	-362.541051	474.722571	1315.003398	-183.548498	463.985988	1181.721153	-197.497974	453.976276	987.074703	70.124837	674.893071	907.590872	-25.381156	454.036050	1034.603697	-545.111673	652.576426	909.960991	-462.142499	10.854700	1118.740373	-302.899110	166.047367	1105.591609	-428.200906	127.573299	1143.886060	-133.015386	200.108037	1054.213768	-393.961304	180.606832	1096.729682	-145.027837	25.953472	1156.254323	-243.880456	45.833710	1152.548260	-352.858928	138.933302	1039.509344	-86.389459	123.051793	959.612175	-460.080043	269.749449	1003.699653	-105.526061	355.215627	997.824359	-122.830812	427.915627	946.443502	-122.333796	361.819041	1017.730613	-153.453720	503.227020	871.326486	-146.723750	480.209973	837.965307	-245.009187	425.490279	808.077363	-110.162827	384.338449	728.052627	-110.091446	311.076159	681.471006	-98.219549	404.819696	708.473187	-136.866713	242.323719	601.743356	-85.108653	241.606472	606.671575	-162.311738	152.602181	598.668964	-115.442163	390.823991	481.387897	-132.151095	312.268673	500.243916	-64.178330	182.736154	843.251447	-451.808209	237.038634	778.992055	-439.664918	269.832349	794.231125	-426.195231	251.748104	690.411553	-426.034839	275.959576	599.692028	-404.827410	282.863415	586.858479	-306.057037	192.107175	244.009893	-410.874121	212.980880	252.144652	-341.462065	125.391996	215.764380	-372.514058	285.719430	146.648683	-431.944730	249.050009	503.993450	-428.194061	254.152330	418.403855	-418.714730	214.912704	338.697469	-417.916710	278.994904	415.946091	-387.372097	379.734887	151.148464	-363.778969	-65.590570	851.305715	-243.619067	21.070547	83.386523	-442.439790	21.053749	84.105289	-44.140688	
1001	5.0050	435.306608	1228.535265	-14.260525	542.354646	1234.366740	-359.595539	474.764454	1313.883682	-182.176051	463.200882	1180.721076	-195.390310	453.580737	987.429664	70.690783	674.320150	907.627223	-26.175622	456.753574	1034.702043	-545.025449	654.746411	909.729901	-462.356435	9.619244	1119.892208	-306.406364	167.199889	1104.646581	-428.758077	126.439357	1147.165458	-134.799533	200.746269	1053.700399	-394.301847	179.128612	1099.025135	-145.792399	25.572911	1158.037844	-246.511786	44.914957	1153.502923	-355.595230	137.526972	1044.107933	-87.034541	123.813886	959.482023	-460.534693	268.151304	1008.186118	-106.276542	353.599704	1002.387308	-123.526301	426.765417	951.740667	-121.765688	360.059448	1021.723493	-154.541571	502.842883	875.318211	-146.033726	480.003858	841.728415	-244.362486	425.763031	810.070340	-110.033959	386.894163	728.998011	-109.799941	314.794786	680.590770	-98.057287	407.894224	709.962606	-136.719218	247.773629	599.278768	-85.208056	246.631407	604.329090	-162.449437	158.420411	593.100663	-115.312648	400.947505	485.522718	-132.179921	322.196877	501.256759	-63.736841	183.481972	843.657839	-451.434434	238.056221	779.529953	-439.092571	270.753608	795.044920	-425.719568	253.039621	691.126991	-425.102069	276.764313	600.096087	-403.858730	284.339033	587.113737	-305.322167	184.213678	246.840260	-410.286771	205.728580	253.701034	-341.089456	116.928910	219.957466	-372.063442	275.460671	147.355691	-431.674261	248.553923	505.163028	-427.322869	251.230320	419.420127	-417.524265	209.871132	340.709768	-417.198745	275.708067	416.409753	-386.024207	369.586505	149.230059	-363.580513	-65.631460	851.293721	-243.606280	21.063983	83.394957	-442.438316	21.046883	84.124783	-44.146824	
1002	5.0100	433.161728	1228.892332	-13.263870	543.799035	1231.717565	-356.569033	474.906100	1312.693712	-181.091769	462.251475	1179.494234	-193.577656	453.073108	988.139240	71.257259	673.390024	907.779184	-26.887240	459.285603	1034.500682	-545.001878	657.037649	909.505675	-462.871129	9.034487	1121.162486	-308.802139	168.003805	1104.057651	-429.255037	125.327260	1150.330907	-136.399721	200.980665	1053.692292	-394.323206	177.450268	1101.200542	-146.631512	25.135336	1160.238719	-248.831624	44.097525	1154.936468	-356.921391	136.239253	1048.890152	-87.507978	124.388018	959.628812	-460.743987	266.386024	1011.965795	-106.766948	351.914911	1006.022811	-123.680924	424.972351	955.335953	-121.552720	358.400802	1024.934734	-154.960018	502.382996	878.033209	-145.419570	479.281142	844.827371	-243.519453	426.406565	810.888610	-110.071903	389.410632	728.795613	-109.410527	318.465977	678.641538	-97.854127	410.773641	710.327065	-136.528949	253.228971	595.716673	-85.165204	251.814813	601.023989	-162.469706	164.208992	586.187250	-115.034794	410.701805	488.841780	-132.257908	331.515061	501.074382	-63.555647	184.376623	844.163766	-450.778861	239.404056	780.572067	-438.152672	272.043780	796.138382	-425.294214	254.829671	692.228720	-423.882045	278.509204	600.928854	-402.708648	286.583870	587.826558	-304.385908	176.656813	250.337183	-409.729985	198.684074	255.946348	-340.672400	108.786446	225.036141	-371.469222	265.422302	148.656856	-431.379566	248.777739	506.712962	-426.105805	248.892842	420.936145	-416.194274	205.319431	343.505905	-416.404846	272.889384	417.284851	-384.441653	359.587633	147.875762	-363.399074	-65.651023	851.310444	-243.580264	21.054402	83.418919	-442.462057	20.998324	84.091395	-44.177092	
1003	5.0150	430.918027	1229.573095	-12.438021	545.125809	1229.083877	-353.915312	475.081124	1311.174171	-180.730401	461.269702	1178.261834	-191.897309	452.443965	988.883349	71.896285	672.553766	907.618290	-27.960117	461.731774	1034.109134	-545.031541	659.144413	909.313422	-463.494204	8.447835	1124.581816	-308.794362	168.625624	1103.845520	-429.661109	124.554611	1153.613693	-137.465953	201.369164	1053.691331	-394.264362	175.968965	1103.588222	-147.577840	24.698411	1162.406056	-250.720795	46.289334	1155.244190	-358.756425	135.054001	1053.331996	-87.946971	124.742489	959.931315	-460.633922	264.583185	1014.849839	-106.814276	350.213297	1008.651536	-123.158194	422.899477	957.692349	-120.137664	356.799761	1027.256342	-154.771339	501.672713	879.653270	-144.425431	478.316536	847.136356	-242.464263	426.964009	810.394308	-108.600599	391.901015	727.375079	-108.758462	322.127686	675.513541	-97.491361	413.569077	709.693330	-136.349084	258.758540	591.056617	-85.096530	257.012590	596.642581	-162.338803	169.758892	578.320253	-114.979445	420.201209	491.459768	-132.293919	340.630931	500.079919	-63.328073	185.479684	844.860435	-449.859078	240.963420	781.707811	-437.107638	273.621926	797.550029	-424.813175	257.152531	693.584528	-422.353328	281.062231	602.205219	-401.377975	289.283122	588.900187	-303.385036	169.532758	254.520753	-409.158977	191.886439	258.896131	-340.208998	100.815084	230.805961	-371.123756	255.593359	150.662300	-431.132837	249.721245	508.761960	-424.832148	247.086772	423.063488	-414.748292	201.220370	346.917764	-415.623929	270.606539	418.587082	-382.803558	349.591422	147.130070	-363.233553	-65.646762	851.325359	-243.544653	21.030878	83.477589	-442.494459	20.966786	84.095871	-44.223671	
